<svg width="37" height="62" viewBox="0 0 37 62" fill="none" xmlns="http://www.w3.org/2000/svg">
<path d="M36.4706 20.1609C36.4706 21.5671 35.5417 22.6687 34.4889 22.6687H32.5073L32.5506 35.1843C32.5506 35.3953 32.5382 35.6062 32.5196 35.8171V37.0749C32.5196 38.8015 31.4112 40.1999 30.0426 40.1999H29.0518C28.9836 40.1999 28.9155 40.1999 28.8474 40.1921C28.7607 40.1999 28.674 40.1999 28.5873 40.1999H26.5747H25.0884C23.7199 40.1999 22.6114 38.8015 22.6114 37.0749V35.1999V30.1999C22.6114 28.8171 21.7258 27.6999 20.6297 27.6999H16.6664C15.5703 27.6999 14.6848 28.8171 14.6848 30.1999V35.1999V37.0749C14.6848 38.8015 13.5763 40.1999 12.2077 40.1999H10.7215H8.74603C8.65314 40.1999 8.56025 40.1921 8.46736 40.1843C8.39304 40.1921 8.31873 40.1999 8.24442 40.1999H7.2536C5.88502 40.1999 4.77653 38.8015 4.77653 37.0749V28.3249C4.77653 28.2546 4.77653 28.1765 4.78273 28.1062V22.6687H2.79488C1.6802 22.6687 0.813232 21.5749 0.813232 20.1609C0.813232 19.4578 0.999012 18.8328 1.4325 18.2859L17.3105 0.824951C17.744 0.278076 18.2394 0.199951 18.6729 0.199951C19.1063 0.199951 19.6018 0.356201 19.9733 0.746826L35.7894 18.2859C36.2848 18.8328 36.5325 19.4578 36.4706 20.1609Z" fill="currentColor"/>
<path d="M4.65629 55.5999H3.82533L6.22874 49.0544H7.04692L9.45033 55.5999H8.61936L6.6634 50.0899H6.61226L4.65629 55.5999ZM4.96311 53.043H8.31254V53.7462H4.96311V53.043ZM12.3619 55.7021C11.9017 55.7021 11.5054 55.5935 11.173 55.3761C10.8406 55.1588 10.5849 54.8594 10.4059 54.478C10.227 54.0967 10.1375 53.6609 10.1375 53.1709C10.1375 52.6723 10.2291 52.2323 10.4123 51.8509C10.5977 51.4674 10.8555 51.168 11.1858 50.9528C11.5182 50.7355 11.9059 50.6268 12.3491 50.6268C12.6943 50.6268 13.0054 50.6908 13.2824 50.8186C13.5593 50.9464 13.7863 51.1254 13.9631 51.3555C14.14 51.5856 14.2497 51.8541 14.2923 52.1609H13.538C13.4805 51.9372 13.3527 51.7391 13.1545 51.5665C12.9585 51.3918 12.6943 51.3044 12.3619 51.3044C12.0679 51.3044 11.8101 51.3811 11.5885 51.5345C11.369 51.6858 11.1975 51.8999 11.0739 52.1769C10.9525 52.4518 10.8917 52.7746 10.8917 53.1453C10.8917 53.5246 10.9514 53.8548 11.0707 54.1361C11.1922 54.4173 11.3626 54.6357 11.5821 54.7913C11.8037 54.9468 12.0636 55.0246 12.3619 55.0246C12.5579 55.0246 12.7358 54.9905 12.8956 54.9223C13.0554 54.8541 13.1907 54.7561 13.3015 54.6283C13.4123 54.5004 13.4912 54.347 13.538 54.168H14.2923C14.2497 54.4578 14.1442 54.7188 13.9759 54.9511C13.8097 55.1812 13.5892 55.3644 13.3143 55.5008C13.0416 55.635 12.7241 55.7021 12.3619 55.7021ZM17.3892 55.7021C16.929 55.7021 16.5327 55.5935 16.2003 55.3761C15.8679 55.1588 15.6123 54.8594 15.4333 54.478C15.2543 54.0967 15.1648 53.6609 15.1648 53.1709C15.1648 52.6723 15.2564 52.2323 15.4397 51.8509C15.625 51.4674 15.8829 51.168 16.2131 50.9528C16.5455 50.7355 16.9333 50.6268 17.3765 50.6268C17.7216 50.6268 18.0327 50.6908 18.3097 50.8186C18.5867 50.9464 18.8136 51.1254 18.9905 51.3555C19.1673 51.5856 19.277 51.8541 19.3196 52.1609H18.5654C18.5079 51.9372 18.38 51.7391 18.1819 51.5665C17.9858 51.3918 17.7216 51.3044 17.3892 51.3044C17.0952 51.3044 16.8374 51.3811 16.6158 51.5345C16.3964 51.6858 16.2248 51.8999 16.1013 52.1769C15.9798 52.4518 15.9191 52.7746 15.9191 53.1453C15.9191 53.5246 15.9787 53.8548 16.0981 54.1361C16.2195 54.4173 16.39 54.6357 16.6094 54.7913C16.831 54.9468 17.091 55.0246 17.3892 55.0246C17.5853 55.0246 17.7632 54.9905 17.923 54.9223C18.0828 54.8541 18.2181 54.7561 18.3289 54.6283C18.4397 54.5004 18.5185 54.347 18.5654 54.168H19.3196C19.277 54.4578 19.1716 54.7188 19.0032 54.9511C18.837 55.1812 18.6165 55.3644 18.3417 55.5008C18.0689 55.635 17.7515 55.7021 17.3892 55.7021ZM23.516 53.5928V50.6908H24.2703V55.5999H23.516V54.7689H23.4649C23.3498 55.0182 23.1709 55.2302 22.928 55.4049C22.6851 55.5775 22.3782 55.6638 22.0075 55.6638C21.7007 55.6638 21.428 55.5967 21.1893 55.4624C20.9507 55.3261 20.7632 55.1215 20.6268 54.8488C20.4905 54.5739 20.4223 54.2277 20.4223 53.8101V50.6908H21.1765V53.7589C21.1765 54.1169 21.2767 54.4024 21.477 54.6155C21.6794 54.8285 21.9372 54.9351 22.2504 54.9351C22.4379 54.9351 22.6286 54.8871 22.8225 54.7913C23.0185 54.6954 23.1826 54.5484 23.3147 54.3502C23.4489 54.1521 23.516 53.8996 23.516 53.5928ZM27.71 55.7021C27.237 55.7021 26.829 55.5977 26.4859 55.3889C26.145 55.178 25.8819 54.8839 25.6965 54.5068C25.5133 54.1276 25.4217 53.6865 25.4217 53.1837C25.4217 52.6808 25.5133 52.2376 25.6965 51.8541C25.8819 51.4685 26.1397 51.168 26.4699 50.9528C26.8023 50.7355 27.1901 50.6268 27.6333 50.6268C27.889 50.6268 28.1415 50.6695 28.3908 50.7547C28.64 50.8399 28.867 50.9784 29.0715 51.1702C29.2761 51.3598 29.4391 51.6112 29.5605 51.9244C29.682 52.2376 29.7427 52.6233 29.7427 53.0814V53.401H25.9586V52.749H28.9756C28.9756 52.472 28.9202 52.2249 28.8094 52.0075C28.7008 51.7902 28.5452 51.6187 28.3428 51.493C28.1425 51.3673 27.906 51.3044 27.6333 51.3044C27.3329 51.3044 27.0729 51.379 26.8535 51.5281C26.6361 51.6751 26.4689 51.8669 26.3517 52.1034C26.2345 52.3399 26.1759 52.5935 26.1759 52.8641V53.2987C26.1759 53.6695 26.2398 53.9837 26.3677 54.2415C26.4976 54.4972 26.6777 54.6922 26.9078 54.8264C27.1379 54.9585 27.4053 55.0246 27.71 55.0246C27.9082 55.0246 28.0871 54.9969 28.2469 54.9415C28.4089 54.8839 28.5484 54.7987 28.6656 54.6858C28.7828 54.5707 28.8734 54.428 28.9373 54.2575L29.666 54.4621C29.5893 54.7092 29.4604 54.9266 29.2793 55.1141C29.0981 55.2994 28.8744 55.4443 28.6081 55.5487C28.3418 55.651 28.0424 55.7021 27.71 55.7021ZM30.89 55.5999V50.6908H31.6443V55.5999H30.89ZM31.2736 49.8726C31.1266 49.8726 30.9998 49.8225 30.8932 49.7224C30.7888 49.6222 30.7366 49.5018 30.7366 49.3612C30.7366 49.2206 30.7888 49.1002 30.8932 49.0001C30.9998 48.8999 31.1266 48.8499 31.2736 48.8499C31.4206 48.8499 31.5463 48.8999 31.6507 49.0001C31.7572 49.1002 31.8105 49.2206 31.8105 49.3612C31.8105 49.5018 31.7572 49.6222 31.6507 49.7224C31.5463 49.8225 31.4206 49.8726 31.2736 49.8726ZM33.7801 49.0544V55.5999H33.0258V49.0544H33.7801Z" fill="currentColor"/>
</svg>
