<svg width="37" height="62" viewBox="0 0 37 62" fill="none" xmlns="http://www.w3.org/2000/svg">
<path d="M0.493408 5.91424C0.493408 2.76245 2.49269 0.199951 4.95174 0.199951H31.7017C34.1608 0.199951 36.1601 2.76245 36.1601 5.91424V34.4857C36.1601 37.6374 34.1608 40.1999 31.7017 40.1999H4.95174C2.49269 40.1999 0.493408 37.6374 0.493408 34.4857V5.91424ZM3.83716 30.1999V33.0571C3.83716 33.8428 4.33872 34.4857 4.95174 34.4857H7.18091C7.79393 34.4857 8.29549 33.8428 8.29549 33.0571V30.1999C8.29549 29.4142 7.79393 28.7714 7.18091 28.7714H4.95174C4.33872 28.7714 3.83716 29.4142 3.83716 30.1999ZM29.4726 28.7714C28.8595 28.7714 28.358 29.4142 28.358 30.1999V33.0571C28.358 33.8428 28.8595 34.4857 29.4726 34.4857H31.7017C32.3148 34.4857 32.8163 33.8428 32.8163 33.0571V30.1999C32.8163 29.4142 32.3148 28.7714 31.7017 28.7714H29.4726ZM3.83716 18.7714V21.6285C3.83716 22.4142 4.33872 23.0571 4.95174 23.0571H7.18091C7.79393 23.0571 8.29549 22.4142 8.29549 21.6285V18.7714C8.29549 17.9857 7.79393 17.3428 7.18091 17.3428H4.95174C4.33872 17.3428 3.83716 17.9857 3.83716 18.7714ZM29.4726 17.3428C28.8595 17.3428 28.358 17.9857 28.358 18.7714V21.6285C28.358 22.4142 28.8595 23.0571 29.4726 23.0571H31.7017C32.3148 23.0571 32.8163 22.4142 32.8163 21.6285V18.7714C32.8163 17.9857 32.3148 17.3428 31.7017 17.3428H29.4726ZM3.83716 7.34281V10.2C3.83716 10.9857 4.33872 11.6285 4.95174 11.6285H7.18091C7.79393 11.6285 8.29549 10.9857 8.29549 10.2V7.34281C8.29549 6.55709 7.79393 5.91424 7.18091 5.91424H4.95174C4.33872 5.91424 3.83716 6.55709 3.83716 7.34281ZM29.4726 5.91424C28.8595 5.91424 28.358 6.55709 28.358 7.34281V10.2C28.358 10.9857 28.8595 11.6285 29.4726 11.6285H31.7017C32.3148 11.6285 32.8163 10.9857 32.8163 10.2V7.34281C32.8163 6.55709 32.3148 5.91424 31.7017 5.91424H29.4726ZM11.6392 8.77138V14.4857C11.6392 16.066 12.6354 17.3428 13.8684 17.3428H22.7851C24.0181 17.3428 25.0142 16.066 25.0142 14.4857V8.77138C25.0142 7.19102 24.0181 5.91424 22.7851 5.91424H13.8684C12.6354 5.91424 11.6392 7.19102 11.6392 8.77138ZM13.8684 23.0571C12.6354 23.0571 11.6392 24.3339 11.6392 25.9142V31.6285C11.6392 33.2089 12.6354 34.4857 13.8684 34.4857H22.7851C24.0181 34.4857 25.0142 33.2089 25.0142 31.6285V25.9142C25.0142 24.3339 24.0181 23.0571 22.7851 23.0571H13.8684Z" fill="currentColor"/>
<path d="M8.17372 55.5999V49.0544H12.0984V49.7575H8.96633V51.9692H11.8044V52.6723H8.96633V55.5999H8.17372ZM13.3537 55.5999V50.6908H14.1079V55.5999H13.3537ZM13.7372 49.8726C13.5902 49.8726 13.4634 49.8225 13.3569 49.7224C13.2525 49.6222 13.2003 49.5018 13.2003 49.3612C13.2003 49.2206 13.2525 49.1002 13.3569 49.0001C13.4634 48.8999 13.5902 48.8499 13.7372 48.8499C13.8842 48.8499 14.0099 48.8999 14.1143 49.0001C14.2209 49.1002 14.2741 49.2206 14.2741 49.3612C14.2741 49.5018 14.2209 49.6222 14.1143 49.7224C14.0099 49.8225 13.8842 49.8726 13.7372 49.8726ZM16.2437 49.0544V55.5999H15.4894V49.0544H16.2437ZM17.6252 55.5999V50.6908H18.3538V51.4578H18.4178C18.52 51.1957 18.6852 50.9923 18.9132 50.8474C19.1411 50.7004 19.4149 50.6268 19.7345 50.6268C20.0584 50.6268 20.3279 50.7004 20.5431 50.8474C20.7605 50.9923 20.9298 51.1957 21.0513 51.4578H21.1024C21.2281 51.2043 21.4167 51.0029 21.6681 50.8538C21.9195 50.7025 22.221 50.6268 22.5726 50.6268C23.0115 50.6268 23.3705 50.7643 23.6497 51.0391C23.9288 51.3119 24.0683 51.7369 24.0683 52.3143V55.5999H23.3141V52.3143C23.3141 51.9521 23.215 51.6932 23.0168 51.5377C22.8187 51.3822 22.5854 51.3044 22.3169 51.3044C21.9717 51.3044 21.7043 51.4088 21.5147 51.6176C21.3251 51.8243 21.2303 52.0864 21.2303 52.4038V55.5999H20.4632V52.2376C20.4632 51.9585 20.3727 51.7337 20.1916 51.5633C20.0105 51.3907 19.7771 51.3044 19.4916 51.3044C19.2956 51.3044 19.1124 51.3566 18.9419 51.461C18.7736 51.5654 18.6372 51.7103 18.5328 51.8957C18.4306 52.0789 18.3794 52.2909 18.3794 52.5317V55.5999H17.6252ZM28.9247 51.7902L28.2471 51.982C28.2045 51.869 28.1417 51.7593 28.0586 51.6528C27.9776 51.5441 27.8668 51.4546 27.7262 51.3843C27.5856 51.314 27.4055 51.2788 27.1861 51.2788C26.8856 51.2788 26.6353 51.3481 26.435 51.4866C26.2368 51.6229 26.1378 51.7966 26.1378 52.0075C26.1378 52.195 26.2059 52.3431 26.3423 52.4518C26.4787 52.5604 26.6917 52.651 26.9815 52.7234L27.7102 52.9024C28.1491 53.0089 28.4762 53.1719 28.6914 53.3914C28.9066 53.6087 29.0142 53.8889 29.0142 54.232C29.0142 54.5132 28.9332 54.7646 28.7713 54.9862C28.6115 55.2078 28.3878 55.3825 28.1001 55.5104C27.8125 55.6382 27.478 55.7021 27.0966 55.7021C26.5959 55.7021 26.1814 55.5935 25.8533 55.3761C25.5252 55.1588 25.3174 54.8413 25.2301 54.4237L25.946 54.2447C26.0142 54.5089 26.1431 54.7071 26.3327 54.8392C26.5245 54.9713 26.7748 55.0374 27.0838 55.0374C27.4353 55.0374 27.7145 54.9628 27.9211 54.8136C28.1299 54.6624 28.2344 54.4812 28.2344 54.2703C28.2344 54.0999 28.1747 53.9571 28.0554 53.842C27.9361 53.7249 27.7528 53.6375 27.5057 53.58L26.6875 53.3882C26.2379 53.2817 25.9076 53.1165 25.6967 52.8928C25.4879 52.667 25.3835 52.3847 25.3835 52.0459C25.3835 51.7689 25.4613 51.5239 25.6168 51.3108C25.7745 51.0977 25.9886 50.9305 26.2592 50.809C26.5319 50.6876 26.8409 50.6268 27.1861 50.6268C27.6719 50.6268 28.0532 50.7334 28.3302 50.9464C28.6094 51.1595 28.8075 51.4408 28.9247 51.7902Z" fill="currentColor"/>
</svg>
