<svg width="25" height="35" viewBox="0 0 35 35" fill="none" xmlns="http://www.w3.org/2000/svg">
<g clip-path="url(#clip0_1115_397)">
<path d="M28.4375 14.2489C28.4375 17.3334 27.4189 20.1828 25.7031 22.4945L34.3574 31.0088C35.2119 31.8488 35.2119 33.213 34.3574 34.053C33.5029 34.893 32.1152 34.893 31.2607 34.053L22.6064 25.5387C20.2549 27.2321 17.3564 28.2267 14.2188 28.2267C6.36426 28.2267 0 21.9703 0 14.2489C0 6.52757 6.36426 0.271179 14.2188 0.271179C22.0732 0.271179 28.4375 6.52757 28.4375 14.2489ZM14.2188 23.9258C19.6533 23.9258 24.0625 19.5914 24.0625 14.2489C24.0625 8.90647 19.6533 4.57203 14.2188 4.57203C8.78418 4.57203 4.375 8.90647 4.375 14.2489C4.375 19.5914 8.78418 23.9258 14.2188 23.9258Z" fill="white"/>
</g>
<defs>
<clipPath id="clip0_1115_397">
<rect width="35" height="34.4068" fill="white" transform="translate(0 0.271179)"/>
</clipPath>
</defs>
</svg>
