<svg width="52" height="83" viewBox="0 0 52 83" fill="none" xmlns="http://www.w3.org/2000/svg">
<ellipse cx="26.0001" cy="29" rx="25.68" ry="28.8" fill="#AE121C"/>
<path d="M1.29798 76.3999V69.8544H3.50963C4.021 69.8544 4.44074 69.9418 4.76887 70.1165C5.09699 70.2891 5.33989 70.5267 5.49756 70.8292C5.65523 71.1318 5.73406 71.4759 5.73406 71.8615C5.73406 72.2472 5.65523 72.5892 5.49756 72.8875C5.33989 73.1858 5.09806 73.4201 4.77206 73.5906C4.44607 73.7589 4.02952 73.8431 3.52242 73.8431H1.73264V73.1272H3.49685C3.84628 73.1272 4.12753 73.076 4.3406 72.9738C4.5558 72.8715 4.71134 72.7266 4.80722 72.5391C4.90523 72.3495 4.95423 72.1236 4.95423 71.8615C4.95423 71.5995 4.90523 71.3704 4.80722 71.1744C4.70921 70.9784 4.5526 70.8271 4.3374 70.7206C4.1222 70.6119 3.83776 70.5576 3.48406 70.5576H2.0906V76.3999H1.29798ZM4.37895 73.4596L5.98975 76.3999H5.06929L3.48406 73.4596H4.37895ZM8.95805 76.5022C8.48504 76.5022 8.07702 76.3978 7.73398 76.189C7.39307 75.978 7.12993 75.684 6.94456 75.3069C6.76132 74.9276 6.6697 74.4866 6.6697 73.9837C6.6697 73.4809 6.76132 73.0377 6.94456 72.6542C7.12993 72.2685 7.38774 71.9681 7.718 71.7529C8.05038 71.5356 8.43817 71.4269 8.88135 71.4269C9.13703 71.4269 9.38952 71.4695 9.63881 71.5547C9.88809 71.64 10.115 71.7785 10.3196 71.9702C10.5241 72.1598 10.6871 72.4113 10.8085 72.7245C10.93 73.0377 10.9907 73.4233 10.9907 73.8814V74.201H7.20663V73.549H10.2237C10.2237 73.2721 10.1683 73.0249 10.0575 72.8076C9.94882 72.5902 9.79328 72.4187 9.59086 72.293C9.39058 72.1673 9.15408 72.1044 8.88135 72.1044C8.58092 72.1044 8.32098 72.179 8.10152 72.3282C7.88419 72.4752 7.71693 72.6669 7.59974 72.9035C7.48256 73.14 7.42396 73.3935 7.42396 73.6641V74.0988C7.42396 74.4695 7.48788 74.7838 7.61572 75.0416C7.74569 75.2973 7.92574 75.4922 8.15585 75.6265C8.38596 75.7586 8.65336 75.8246 8.95805 75.8246C9.15621 75.8246 9.33518 75.7969 9.49498 75.7415C9.65692 75.684 9.79648 75.5988 9.91366 75.4858C10.0309 75.3708 10.1214 75.228 10.1853 75.0576L10.914 75.2621C10.8373 75.5093 10.7084 75.7266 10.5273 75.9141C10.3462 76.0995 10.1225 76.2444 9.85613 76.3488C9.5898 76.451 9.29044 76.5022 8.95805 76.5022ZM14.1324 76.5022C13.6722 76.5022 13.2759 76.3935 12.9435 76.1762C12.6111 75.9589 12.3554 75.6595 12.1764 75.2781C11.9975 74.8967 11.908 74.461 11.908 73.9709C11.908 73.4723 11.9996 73.0324 12.1828 72.651C12.3682 72.2674 12.626 71.9681 12.9563 71.7529C13.2887 71.5356 13.6764 71.4269 14.1196 71.4269C14.4648 71.4269 14.7759 71.4908 15.0529 71.6187C15.3299 71.7465 15.5568 71.9255 15.7336 72.1556C15.9105 72.3857 16.0202 72.6542 16.0628 72.961H15.3085C15.251 72.7373 15.1232 72.5391 14.925 72.3665C14.729 72.1918 14.4648 72.1044 14.1324 72.1044C13.8384 72.1044 13.5806 72.1812 13.359 72.3346C13.1395 72.4858 12.968 72.7 12.8444 72.977C12.723 73.2518 12.6622 73.5746 12.6622 73.9454C12.6622 74.3246 12.7219 74.6549 12.8412 74.9361C12.9627 75.2174 13.1331 75.4358 13.3526 75.5913C13.5742 75.7468 13.8341 75.8246 14.1324 75.8246C14.3284 75.8246 14.5063 75.7905 14.6661 75.7223C14.826 75.6542 14.9612 75.5562 15.072 75.4283C15.1828 75.3005 15.2617 75.1471 15.3085 74.9681H16.0628C16.0202 75.2579 15.9147 75.5189 15.7464 75.7511C15.5802 75.9812 15.3597 76.1645 15.0848 76.3008C14.8121 76.4351 14.4946 76.5022 14.1324 76.5022ZM17.9197 73.4468V76.3999H17.1654V69.8544H17.9197V72.2579H17.9836C18.0987 72.0043 18.2713 71.803 18.5014 71.6538C18.7336 71.5025 19.0426 71.4269 19.4282 71.4269C19.7627 71.4269 20.0557 71.494 20.3071 71.6282C20.5585 71.7603 20.7535 71.9638 20.892 72.2387C21.0326 72.5114 21.1029 72.8587 21.1029 73.2806V76.3999H20.3487V73.3317C20.3487 72.9418 20.2475 72.6403 20.0451 72.4272C19.8448 72.212 19.5667 72.1044 19.2109 72.1044C18.9637 72.1044 18.7421 72.1566 18.5461 72.2611C18.3522 72.3655 18.1988 72.5178 18.0859 72.7181C17.9751 72.9184 17.9197 73.1613 17.9197 73.4468ZM24.5411 76.5022C24.068 76.5022 23.66 76.3978 23.317 76.189C22.9761 75.978 22.7129 75.684 22.5276 75.3069C22.3443 74.9276 22.2527 74.4866 22.2527 73.9837C22.2527 73.4809 22.3443 73.0377 22.5276 72.6542C22.7129 72.2685 22.9707 71.9681 23.301 71.7529C23.6334 71.5356 24.0212 71.4269 24.4644 71.4269C24.72 71.4269 24.9725 71.4695 25.2218 71.5547C25.4711 71.64 25.698 71.7785 25.9026 71.9702C26.1071 72.1598 26.2701 72.4113 26.3916 72.7245C26.513 73.0377 26.5737 73.4233 26.5737 73.8814V74.201H22.7896V73.549H25.8067C25.8067 73.2721 25.7513 73.0249 25.6405 72.8076C25.5318 72.5902 25.3763 72.4187 25.1739 72.293C24.9736 72.1673 24.7371 72.1044 24.4644 72.1044C24.1639 72.1044 23.904 72.179 23.6845 72.3282C23.4672 72.4752 23.2999 72.6669 23.1828 72.9035C23.0656 73.14 23.007 73.3935 23.007 73.6641V74.0988C23.007 74.4695 23.0709 74.7838 23.1987 75.0416C23.3287 75.2973 23.5087 75.4922 23.7389 75.6265C23.969 75.7586 24.2364 75.8246 24.5411 75.8246C24.7392 75.8246 24.9182 75.7969 25.078 75.7415C25.2399 75.684 25.3795 75.5988 25.4967 75.4858C25.6139 75.3708 25.7044 75.228 25.7683 75.0576L26.497 75.2621C26.4203 75.5093 26.2914 75.7266 26.1103 75.9141C25.9292 76.0995 25.7055 76.2444 25.4391 76.3488C25.1728 76.451 24.8734 76.5022 24.5411 76.5022ZM27.7211 76.3999V71.4908H28.4498V72.2323H28.5009C28.5904 71.9894 28.7524 71.7923 28.9867 71.641C29.2211 71.4897 29.4853 71.4141 29.7793 71.4141C29.8347 71.4141 29.904 71.4152 29.9871 71.4173C30.0702 71.4194 30.133 71.4226 30.1756 71.4269V72.1939C30.1501 72.1875 30.0915 72.178 29.9999 72.1652C29.9104 72.1503 29.8156 72.1428 29.7154 72.1428C29.4768 72.1428 29.2637 72.1929 29.0762 72.293C28.8908 72.391 28.7438 72.5274 28.6352 72.7021C28.5286 72.8747 28.4754 73.0718 28.4754 73.2934V76.3999H27.7211ZM32.9146 76.5022C32.4544 76.5022 32.0581 76.3935 31.7257 76.1762C31.3933 75.9589 31.1377 75.6595 30.9587 75.2781C30.7797 74.8967 30.6902 74.461 30.6902 73.9709C30.6902 73.4723 30.7818 73.0324 30.9651 72.651C31.1504 72.2674 31.4082 71.9681 31.7385 71.7529C32.0709 71.5356 32.4587 71.4269 32.9019 71.4269C33.247 71.4269 33.5581 71.4908 33.8351 71.6187C34.1121 71.7465 34.339 71.9255 34.5158 72.1556C34.6927 72.3857 34.8024 72.6542 34.845 72.961H34.0908C34.0332 72.7373 33.9054 72.5391 33.7073 72.3665C33.5112 72.1918 33.247 72.1044 32.9146 72.1044C32.6206 72.1044 32.3628 72.1812 32.1412 72.3346C31.9217 72.4858 31.7502 72.7 31.6266 72.977C31.5052 73.2518 31.4445 73.5746 31.4445 73.9454C31.4445 74.3246 31.5041 74.6549 31.6234 74.9361C31.7449 75.2174 31.9153 75.4358 32.1348 75.5913C32.3564 75.7468 32.6163 75.8246 32.9146 75.8246C33.1107 75.8246 33.2886 75.7905 33.4484 75.7223C33.6082 75.6542 33.7435 75.5562 33.8543 75.4283C33.9651 75.3005 34.0439 75.1471 34.0908 74.9681H34.845C34.8024 75.2579 34.697 75.5189 34.5286 75.7511C34.3624 75.9812 34.1419 76.1645 33.8671 76.3008C33.5943 76.4351 33.2769 76.5022 32.9146 76.5022ZM36.7019 73.4468V76.3999H35.9477V69.8544H36.7019V72.2579H36.7658C36.8809 72.0043 37.0535 71.803 37.2836 71.6538C37.5158 71.5025 37.8248 71.4269 38.2104 71.4269C38.545 71.4269 38.8379 71.494 39.0894 71.6282C39.3408 71.7603 39.5357 71.9638 39.6742 72.2387C39.8149 72.5114 39.8852 72.8587 39.8852 73.2806V76.3999H39.1309V73.3317C39.1309 72.9418 39.0297 72.6403 38.8273 72.4272C38.627 72.212 38.3489 72.1044 37.9931 72.1044C37.746 72.1044 37.5244 72.1566 37.3283 72.2611C37.1345 72.3655 36.981 72.5178 36.8681 72.7181C36.7573 72.9184 36.7019 73.1613 36.7019 73.4468ZM43.3233 76.5022C42.8503 76.5022 42.4422 76.3978 42.0992 76.189C41.7583 75.978 41.4952 75.684 41.3098 75.3069C41.1266 74.9276 41.0349 74.4866 41.0349 73.9837C41.0349 73.4809 41.1266 73.0377 41.3098 72.6542C41.4952 72.2685 41.753 71.9681 42.0832 71.7529C42.4156 71.5356 42.8034 71.4269 43.2466 71.4269C43.5023 71.4269 43.7547 71.4695 44.004 71.5547C44.2533 71.64 44.4802 71.7785 44.6848 71.9702C44.8893 72.1598 45.0523 72.4113 45.1738 72.7245C45.2952 73.0377 45.356 73.4233 45.356 73.8814V74.201H41.5719V73.549H44.5889C44.5889 73.2721 44.5335 73.0249 44.4227 72.8076C44.3141 72.5902 44.1585 72.4187 43.9561 72.293C43.7558 72.1673 43.5193 72.1044 43.2466 72.1044C42.9462 72.1044 42.6862 72.179 42.4668 72.3282C42.2494 72.4752 42.0822 72.6669 41.965 72.9035C41.8478 73.14 41.7892 73.3935 41.7892 73.6641V74.0988C41.7892 74.4695 41.8531 74.7838 41.981 75.0416C42.1109 75.2973 42.291 75.4922 42.5211 75.6265C42.7512 75.7586 43.0186 75.8246 43.3233 75.8246C43.5214 75.8246 43.7004 75.7969 43.8602 75.7415C44.0222 75.684 44.1617 75.5988 44.2789 75.4858C44.3961 75.3708 44.4866 75.228 44.5506 75.0576L45.2793 75.2621C45.2025 75.5093 45.0736 75.7266 44.8925 75.9141C44.7114 76.0995 44.4877 76.2444 44.2214 76.3488C43.955 76.451 43.6557 76.5022 43.3233 76.5022ZM46.5033 76.3999V71.4908H47.232V72.2323H47.2832C47.3726 71.9894 47.5346 71.7923 47.769 71.641C48.0033 71.4897 48.2675 71.4141 48.5616 71.4141C48.617 71.4141 48.6862 71.4152 48.7693 71.4173C48.8524 71.4194 48.9153 71.4226 48.9579 71.4269V72.1939C48.9323 72.1875 48.8737 72.178 48.7821 72.1652C48.6926 72.1503 48.5978 72.1428 48.4976 72.1428C48.259 72.1428 48.0459 72.1929 47.8584 72.293C47.6731 72.391 47.5261 72.5274 47.4174 72.7021C47.3109 72.8747 47.2576 73.0718 47.2576 73.2934V76.3999H46.5033Z" fill="currentColor"/>
<g clip-path="url(#clip0_1115_460)">
<path d="M34.9167 26C34.9167 28.8687 34.0864 31.5188 32.6876 33.6688L39.7429 41.5875C40.4395 42.3687 40.4395 43.6375 39.7429 44.4188C39.0463 45.2 37.915 45.2 37.2183 44.4188L30.163 36.5C28.2459 38.075 25.883 39 23.3251 39C16.9218 39 11.7334 33.1812 11.7334 26C11.7334 18.8187 16.9218 13 23.3251 13C29.7283 13 34.9167 18.8187 34.9167 26ZM23.3251 35C27.7555 35 31.3501 30.9688 31.3501 26C31.3501 21.0312 27.7555 17 23.3251 17C18.8946 17 15.3001 21.0312 15.3001 26C15.3001 30.9688 18.8946 35 23.3251 35Z" fill="white"/>
</g>
<defs>
<clipPath id="clip0_1115_460">
<rect width="28.5333" height="32" fill="white" transform="translate(11.7334 13)"/>
</clipPath>
</defs>
</svg>
