<svg width="37" height="62" viewBox="0 0 37 62" fill="black" xmlns="http://www.w3.org/2000/svg">
<path d="M31.9149 0.199951H25.917L25.8474 0.289237L17.0004 11.6285H23.4162L23.4858 11.5392L32.3189 0.226737C32.1866 0.20888 32.0542 0.199951 31.9149 0.199951ZM36.3732 11.6285V5.91424C36.3732 4.56602 36.004 3.31602 35.398 2.34281L28.1532 11.6285H36.3732ZM21.194 0.199951H14.7712L14.7015 0.289237L5.85453 11.6285H12.2703L12.34 11.5392L21.187 0.199951H21.194ZM5.16488 0.199951C2.70583 0.199951 0.706543 2.76245 0.706543 5.91424V11.6285H1.13148L1.20114 11.5392L10.0481 0.199951H5.16488ZM36.3732 14.4857H0.706543V34.4857C0.706543 37.6374 2.70583 40.1999 5.16488 40.1999H31.9149C34.3739 40.1999 36.3732 37.6374 36.3732 34.4857V14.4857Z" fill="black"/>
<path d="M9.95077 50.6908C9.91242 50.3669 9.75688 50.1155 9.48415 49.9365C9.21143 49.7575 8.87691 49.668 8.4806 49.668C8.19083 49.668 7.93728 49.7149 7.71995 49.8087C7.50475 49.9024 7.33643 50.0313 7.21498 50.1954C7.09566 50.3594 7.036 50.5459 7.036 50.7547C7.036 50.9294 7.07755 51.0796 7.16064 51.2053C7.24587 51.3289 7.35454 51.4322 7.48664 51.5153C7.61874 51.5963 7.75724 51.6634 7.90212 51.7167C8.04701 51.7678 8.18018 51.8094 8.30162 51.8413L8.9664 52.0203C9.13685 52.0651 9.32648 52.1268 9.53529 52.2057C9.74623 52.2845 9.94758 52.3921 10.1393 52.5285C10.3332 52.6627 10.493 52.8353 10.6187 53.0462C10.7445 53.2572 10.8073 53.516 10.8073 53.8229C10.8073 54.1766 10.7146 54.4962 10.5293 54.7817C10.346 55.0672 10.0775 55.2941 9.72385 55.4624C9.37229 55.6307 8.94509 55.7149 8.44225 55.7149C7.9735 55.7149 7.5676 55.6393 7.22457 55.488C6.88366 55.3367 6.61519 55.1258 6.41917 54.8552C6.22528 54.5846 6.11555 54.2703 6.08998 53.9124H6.90816C6.92947 54.1595 7.01256 54.3641 7.15745 54.526C7.30447 54.6858 7.48983 54.8051 7.71356 54.8839C7.93941 54.9606 8.18231 54.999 8.44225 54.999C8.74481 54.999 9.01647 54.95 9.25724 54.852C9.498 54.7518 9.6887 54.6133 9.82932 54.4365C9.96995 54.2575 10.0403 54.0487 10.0403 53.8101C10.0403 53.5928 9.97954 53.4159 9.85809 53.2795C9.73664 53.1432 9.57684 53.0324 9.37868 52.9472C9.18053 52.8619 8.9664 52.7874 8.73628 52.7234L7.93089 52.4933C7.41952 52.3463 7.01469 52.1364 6.7164 51.8637C6.4181 51.591 6.26895 51.2341 6.26895 50.793C6.26895 50.4266 6.36803 50.107 6.56618 49.8342C6.76647 49.5594 7.03493 49.3463 7.37158 49.195C7.71036 49.0416 8.08856 48.9649 8.50617 48.9649C8.92805 48.9649 9.30305 49.0405 9.63117 49.1918C9.9593 49.341 10.2192 49.5455 10.411 49.8055C10.6049 50.0654 10.7072 50.3605 10.7178 50.6908H9.95077ZM14.0665 55.7021C13.5934 55.7021 13.1854 55.5977 12.8424 55.3889C12.5015 55.178 12.2383 54.8839 12.053 54.5068C11.8697 54.1276 11.7781 53.6865 11.7781 53.1837C11.7781 52.6808 11.8697 52.2376 12.053 51.8541C12.2383 51.4685 12.4961 51.168 12.8264 50.9528C13.1588 50.7355 13.5466 50.6268 13.9897 50.6268C14.2454 50.6268 14.4979 50.6695 14.7472 50.7547C14.9965 50.8399 15.2234 50.9784 15.428 51.1702C15.6325 51.3598 15.7955 51.6112 15.9169 51.9244C16.0384 52.2376 16.0991 52.6233 16.0991 53.0814V53.401H12.315V52.749H15.3321C15.3321 52.472 15.2767 52.2249 15.1659 52.0075C15.0572 51.7902 14.9017 51.6187 14.6993 51.493C14.499 51.3673 14.2625 51.3044 13.9897 51.3044C13.6893 51.3044 13.4294 51.379 13.2099 51.5281C12.9926 51.6751 12.8253 51.8669 12.7081 52.1034C12.591 52.3399 12.5324 52.5935 12.5324 52.8641V53.2987C12.5324 53.6695 12.5963 53.9837 12.7241 54.2415C12.8541 54.4972 13.0341 54.6922 13.2642 54.8264C13.4944 54.9585 13.7618 55.0246 14.0665 55.0246C14.2646 55.0246 14.4436 54.9969 14.6034 54.9415C14.7653 54.8839 14.9049 54.7987 15.0221 54.6858C15.1392 54.5707 15.2298 54.428 15.2937 54.2575L16.0224 54.4621C15.9457 54.7092 15.8168 54.9266 15.6357 55.1141C15.4546 55.2994 15.2309 55.4443 14.9645 55.5487C14.6982 55.651 14.3988 55.7021 14.0665 55.7021ZM13.6062 50.026L14.3861 48.543H15.2682L14.271 50.026H13.6062ZM17.2465 55.5999V50.6908H17.9752V51.4322H18.0263C18.1158 51.1893 18.2777 50.9923 18.5121 50.841C18.7465 50.6897 19.0107 50.6141 19.3047 50.6141C19.3601 50.6141 19.4294 50.6151 19.5125 50.6173C19.5956 50.6194 19.6584 50.6226 19.701 50.6268V51.3939C19.6755 51.3875 19.6169 51.3779 19.5253 51.3651C19.4358 51.3502 19.341 51.3428 19.2408 51.3428C19.0022 51.3428 18.7891 51.3928 18.6016 51.493C18.4162 51.591 18.2692 51.7273 18.1606 51.9021C18.054 52.0746 18.0008 52.2717 18.0008 52.4933V55.5999H17.2465ZM20.5951 55.5999V50.6908H21.3494V55.5999H20.5951ZM20.9786 49.8726C20.8316 49.8726 20.7049 49.8225 20.5983 49.7224C20.4939 49.6222 20.4417 49.5018 20.4417 49.3612C20.4417 49.2206 20.4939 49.1002 20.5983 49.0001C20.7049 48.8999 20.8316 48.8499 20.9786 48.8499C21.1257 48.8499 21.2514 48.8999 21.3558 49.0001C21.4623 49.1002 21.5156 49.2206 21.5156 49.3612C21.5156 49.5018 21.4623 49.6222 21.3558 49.7224C21.2514 49.8225 21.1257 49.8726 20.9786 49.8726ZM24.7891 55.7021C24.3161 55.7021 23.9081 55.5977 23.565 55.3889C23.2241 55.178 22.961 54.8839 22.7756 54.5068C22.5924 54.1276 22.5008 53.6865 22.5008 53.1837C22.5008 52.6808 22.5924 52.2376 22.7756 51.8541C22.961 51.4685 23.2188 51.168 23.5491 50.9528C23.8814 50.7355 24.2692 50.6268 24.7124 50.6268C24.9681 50.6268 25.2206 50.6695 25.4699 50.7547C25.7191 50.8399 25.9461 50.9784 26.1506 51.1702C26.3552 51.3598 26.5182 51.6112 26.6396 51.9244C26.7611 52.2376 26.8218 52.6233 26.8218 53.0814V53.401H23.0377V52.749H26.0547C26.0547 52.472 25.9993 52.2249 25.8885 52.0075C25.7799 51.7902 25.6243 51.6187 25.4219 51.493C25.2216 51.3673 24.9851 51.3044 24.7124 51.3044C24.412 51.3044 24.152 51.379 23.9326 51.5281C23.7152 51.6751 23.548 51.8669 23.4308 52.1034C23.3136 52.3399 23.255 52.5935 23.255 52.8641V53.2987C23.255 53.6695 23.3189 53.9837 23.4468 54.2415C23.5767 54.4972 23.7568 54.6922 23.9869 54.8264C24.217 54.9585 24.4844 55.0246 24.7891 55.0246C24.9873 55.0246 25.1662 54.9969 25.326 54.9415C25.488 54.8839 25.6275 54.7987 25.7447 54.6858C25.8619 54.5707 25.9525 54.428 26.0164 54.2575L26.7451 54.4621C26.6684 54.7092 26.5395 54.9266 26.3584 55.1141C26.1772 55.2994 25.9535 55.4443 25.6872 55.5487C25.4209 55.651 25.1215 55.7021 24.7891 55.7021ZM31.4464 51.7902L30.7689 51.982C30.7263 51.869 30.6634 51.7593 30.5803 51.6528C30.4993 51.5441 30.3885 51.4546 30.2479 51.3843C30.1073 51.314 29.9272 51.2788 29.7078 51.2788C29.4074 51.2788 29.157 51.3481 28.9567 51.4866C28.7586 51.6229 28.6595 51.7966 28.6595 52.0075C28.6595 52.195 28.7277 52.3431 28.864 52.4518C29.0004 52.5604 29.2135 52.651 29.5032 52.7234L30.2319 52.9024C30.6709 53.0089 30.9979 53.1719 31.2131 53.3914C31.4283 53.6087 31.5359 53.8889 31.5359 54.232C31.5359 54.5132 31.4549 54.7646 31.293 54.9862C31.1332 55.2078 30.9095 55.3825 30.6218 55.5104C30.3342 55.6382 29.9997 55.7021 29.6183 55.7021C29.1176 55.7021 28.7032 55.5935 28.375 55.3761C28.0469 55.1588 27.8392 54.8413 27.7518 54.4237L28.4677 54.2447C28.5359 54.5089 28.6648 54.7071 28.8544 54.8392C29.0462 54.9713 29.2966 55.0374 29.6055 55.0374C29.9571 55.0374 30.2362 54.9628 30.4429 54.8136C30.6517 54.6624 30.7561 54.4812 30.7561 54.2703C30.7561 54.0999 30.6964 53.9571 30.5771 53.842C30.4578 53.7249 30.2745 53.6375 30.0274 53.58L29.2092 53.3882C28.7596 53.2817 28.4294 53.1165 28.2184 52.8928C28.0096 52.667 27.9052 52.3847 27.9052 52.0459C27.9052 51.7689 27.983 51.5239 28.1385 51.3108C28.2962 51.0977 28.5103 50.9305 28.7809 50.809C29.0537 50.6876 29.3626 50.6268 29.7078 50.6268C30.1936 50.6268 30.575 50.7334 30.852 50.9464C31.1311 51.1595 31.3292 51.4408 31.4464 51.7902Z" fill="black"/>
</svg>
